<svg version="1.1"
    xmlns="http://www.w3.org/2000/svg"
    xmlns:xlink="http://www.w3.org/1999/xlink" viewBox="0 0 172 172">
    <defs>
        <linearGradient id="shade" gradientTransform="rotate(95)">
            <stop offset="5%" stop-color="black" stop-opacity="0.4"/>
            <stop offset="95%" stop-color="red" stop-opacity="0.1"/>
        </linearGradient>
    </defs>
    <g fill="none" fill-rule="nonzero" stroke="none" stroke-width="1" stroke-linecap="butt" stroke-linejoin="miter" stroke-miterlimit="10" stroke-dasharray="" stroke-dashoffset="0" font-family="none" font-weight="none" font-size="none" text-anchor="none" style="mix-blend-mode: normal">
        <g>
            <path d="M102.99844,5.375v53.84406h-96.91797v-38.1457c0,-8.76461 7.22266,-15.69836 15.98391,-15.69836z" fill="rgb(140 140 207)"></path>
            <path d="M166.91391,21.07336v38.1457h-63.91547v-53.84406h47.99875c8.76125,0 15.91672,6.93375 15.91672,15.69836z" fill="rgb(166 166 230)"></path>
            <path d="M58.53375,166.20844v0.33594h-36.46937c-8.76125,0 -15.98391,-7.44438 -15.98391,-16.20562v-91.11969h52.45328z" fill="rgb(112 112 175)"></path>
            <!-- <path d="M166.91391,59.21906v53.49469h-108.38016v-53.49469h44.46469z" fill="#ff4ba3"></path>
                <path d="M166.91391,112.71375v37.625c0,8.76125 -7.15547,16.20562 -15.91672,16.20562h-92.46344v-53.83063z" fill="#ff4ba3"></path> -->
            <path d="M166.91391,112.71375v37.625c0,8.76125 -7.15547,16.20562 -15.91672,16.20562h-92.46344v-53.83063h0v-53.49469h108.38016v0z" fill="#ff4ba3"></path>
            <path d="M6.08047,59.21906v91.12977c0,8.76125 7.22266,16.20562 15.98391,16.20562h128.93281c8.76125,0 15.91672,-7.44438 15.91672,-16.20562v-129.27547c0,-8.76461 -7.15547,-15.69836 -15.91672,-15.69836h-128.93281c-8.76125,0 -15.98391,6.93375 -15.98391,15.69836z" fill="url('#shade')"></path>
            <!-- <rect x="174.24" y="176.28" transform="scale(0.33594,0.33594)" width="322.62" height="19.65" fill="#ffffff" opacity="0.3"></rect>
            <rect x="18.1" y="176.28" transform="scale(0.33594,0.33594)" width="156.14" height="19.65" fill="#ffffff" opacity="0.3"></rect>
            <rect x="174.24" y="335.52" transform="scale(0.33594,0.33594)" width="322.62" height="19.65" fill="#ffffff" opacity="0.3"></rect>
            <rect x="174.24" y="315.87" transform="scale(0.33594,0.33594)" width="322.62" height="19.65" fill="#3f456b" opacity="0.2"></rect>
            <rect x="306.6" y="156.63" transform="scale(0.33594,0.33594)" width="190.26" height="19.65" fill="#3f456b" opacity="0.2"></rect>
            <rect x="15" y="156.63" transform="scale(0.33594,0.33594)" width="291.6" height="19.65" fill="#3f456b" opacity="0.2"></rect> -->
            <!-- <path style="mix-blend-mode: screen;" d="M6.04688,21.16406c0,0 3.35938,-10.41406 15.78906,-10.41406h128.66406c0,0 16.46094,0 16.46094,10.41406c0,0 -1.67969,-16.125 -16.125,-16.125h-129c0,0 -15.11719,0.33594 -15.78906,16.125z" fill="#ffffff" opacity="0.1"></path>
            <path style="mix-blend-mode: multiply;" d="M166.96094,150.5c0,0 -3.35937,10.41406 -15.78906,10.41406h-128.66406c0,0 -16.46094,0 -16.46094,-10.41406c0,0 1.67969,16.125 16.125,16.125h129c0,0 15.11719,-0.33594 15.78906,-16.125z" fill="#3f456b" opacity="0.2"></path> -->
            <!-- <g fill="#3f456b">
                <path d="M150.99719,168.23414h-128.93281c-9.57422,0 -17.66359,-8.19016 -17.66359,-17.88195v-129.28219c0,-9.58094 7.92477,-17.37469 17.66359,-17.37469h128.93281c9.70188,0 17.59641,7.79375 17.59641,17.37469v129.28219c-0.00297,4.69927 -1.85253,9.20916 -5.14992,12.55734c-3.25338,3.39177 -7.74665,5.31399 -12.44648,5.32461zM22.06438,7.05469c-7.88781,0 -14.30422,6.28875 -14.30422,14.01531v129.28219c0,7.87102 6.55078,14.52258 14.30422,14.52258h128.93281c7.72656,0 14.23703,-6.65156 14.23703,-14.52258v-129.28219c0,-7.72656 -6.38281,-14.01531 -14.23703,-14.01531z">
                </path>
                <rect x="18.1" y="171.28" transform="scale(0.33594,0.33594)" width="192.9" height="10"></rect>
                <path d="M166.96094,60.89875h-31.91406c-0.92767,0 -1.67969,-0.75202 -1.67969,-1.67969c0,-0.92767 0.75202,-1.67969 1.67969,-1.67969h31.91406c0.92767,0 1.67969,0.75202 1.67969,1.67969c0,0.92767 -0.75202,1.67969 -1.67969,1.67969z">
                </path>
                <rect x="174.24" y="330.52" transform="scale(0.33594,0.33594)" width="322.62" height="10"></rect>
                <rect x="169.24" y="176.28" transform="scale(0.33594,0.33594)" width="10" height="318.48"></rect>
                <path d="M102.99844,41.99219c-0.92767,0 -1.67969,-0.75202 -1.67969,-1.67969v-34.9375c0,-0.92767 0.75202,-1.67969 1.67969,-1.67969c0.92767,0 1.67969,0.75202 1.67969,1.67969v34.9375c0,0.92767 -0.75202,1.67969 -1.67969,1.67969z">
                </path>
            </g> -->
        </g>
    </g>
</svg>